<svg width="65" height="21" viewBox="0 0 65 21" fill="none" xmlns="http://www.w3.org/2000/svg">
<path d="M10.7763 0C13.759 0.0105634 16.838 0.707747 20.0025 2.10211L20.1521 2.16549L20.2056 2.31338V2.32394C20.4622 3.09507 20.6867 3.8662 20.8684 4.63732C21.0502 5.40845 21.1998 6.17958 21.3067 6.9507C21.4564 7.96479 21.5419 8.96831 21.5633 9.98239V11.1655C21.4992 13.7218 21.0502 16.2782 20.2056 18.8345L20.1521 18.9824L20.0025 19.0458C17.009 20.3556 14.0049 21 11.0115 21C10.9367 21 10.8618 21 10.7763 21V20.2817C10.8618 20.2817 10.9367 20.2817 11.0115 20.2817C13.8553 20.2817 16.7097 19.6796 19.5641 18.4542C20.8043 14.6514 21.1464 10.8486 20.5905 7.04577C20.4836 6.30634 20.3339 5.54577 20.1521 4.79577C19.9918 4.09859 19.7887 3.39085 19.5641 2.69366C16.5387 1.3838 13.6094 0.728873 10.7763 0.71831V0ZM1.99918 2.11268C4.80016 0.697183 7.70806 0 10.7122 0C10.7336 0 10.7549 0 10.7763 0V0.71831C10.7549 0.71831 10.7336 0.71831 10.7122 0.71831C7.85773 0.71831 5.1102 1.37324 2.44819 2.69366C1.36842 5.22887 0.759046 7.80634 0.726974 10.4366C0.684211 13.0458 1.22944 15.7183 2.4375 18.4437C5.21711 19.6373 7.99671 20.25 10.7763 20.2817V21C7.85773 20.9683 4.93914 20.3239 2.02056 19.0458L1.82812 18.8662C0.587993 16.1197 0.0106908 13.4155 0 10.7641V10.5739C0 10.5211 0 10.4789 0 10.4261C0.0320724 7.66901 0.684211 4.95423 1.82812 2.29225L1.99918 2.11268Z" fill="#003399"/>
<path fill-rule="evenodd" clip-rule="evenodd" d="M10.9688 16.3627C10.8191 14.3451 10.9153 12.243 10.306 10.3204C9.73936 8.52466 7.59051 7.50002 7.54775 5.52466C7.50498 3.98241 8.69166 2.1972 10.9153 2.1972C13.0001 2.18664 14.2936 3.68664 14.4433 5.35565C14.6251 7.28875 12.2517 8.58804 11.6316 10.4261C10.9902 12.3064 11.1719 14.3873 10.9688 16.3627Z" fill="#003399"/>
<path fill-rule="evenodd" clip-rule="evenodd" d="M11.792 15.8767C11.7064 14.1232 11.7064 12.4436 12.1982 10.9542C12.7434 9.26403 13.8767 7.83797 15.6086 7.37318C16.7952 7.05628 18.5378 8.42952 18.2599 9.83445C18.0247 10.9647 16.8808 12.2957 15.042 12.4436C14.1867 12.5175 13.8232 13.1936 13.2887 13.5844C15.6834 13.3521 17.2336 12.4225 18.3133 11.4506C18.4737 12.2746 18.5806 13.6584 17.9285 14.1337C16.6456 15.0316 15.4589 14.3028 13.9515 14.7253C13.1069 14.9682 12.5831 15.4964 11.792 15.8767Z" fill="#003399"/>
<path fill-rule="evenodd" clip-rule="evenodd" d="M10.1563 15.8767C10.2525 14.1232 10.2418 12.4436 9.76073 10.9542C9.2155 9.26403 8.08227 7.83797 6.35036 7.37318C5.16369 7.05628 3.4104 8.42952 3.69905 9.83445C3.93424 10.9647 5.07816 12.2957 6.91698 12.4436C7.76155 12.5175 8.13573 13.1936 8.67027 13.5844C6.26484 13.3521 4.72536 12.4225 3.64559 11.4506C3.48523 12.2746 3.37832 13.6584 4.03046 14.1337C5.31336 15.0316 6.50004 14.3028 8.00744 14.7253C8.85201 14.9682 9.36517 15.4964 10.1563 15.8767Z" fill="#003399"/>
<path fill-rule="evenodd" clip-rule="evenodd" d="M15.8544 18.486V18.2008L16.0682 18.1479L15.8544 17.831V17.3029L16.8166 18.6233L16.4745 18.7078L16.2393 18.3803L15.8544 18.486ZM15.8544 17.3029V17.831L15.7048 17.6198L15.6406 18.2536L15.8544 18.2008V18.486L15.6085 18.5388L15.5658 18.9296L15.2237 19.0141L15.4482 17.2923L15.7903 17.2078L15.8544 17.3029ZM12.6686 19.405V19.1303H12.7434C12.861 19.1198 12.9358 19.1092 12.9679 19.0986C13.0107 19.0881 13.0534 19.0564 13.0748 19.0247C13.1069 18.9824 13.1176 18.9402 13.1176 18.8874C13.1069 18.8346 13.0962 18.7923 13.0641 18.7606C13.0427 18.7289 13 18.7078 12.9572 18.6972C12.9145 18.6867 12.8182 18.6867 12.6686 18.6972V18.4226C12.7541 18.4226 12.8076 18.412 12.8289 18.412C12.8824 18.4015 12.9251 18.3698 12.9572 18.3381C12.9893 18.3064 13 18.2641 12.9893 18.2113C12.9893 18.1585 12.9679 18.1162 12.9358 18.0951C12.9145 18.0634 12.8717 18.0423 12.8076 18.0423C12.7862 18.0423 12.7434 18.0423 12.6686 18.0529V17.7782C12.7862 17.7677 12.8717 17.7677 12.9251 17.7782C12.9893 17.7782 13.0534 17.7993 13.1069 17.831C13.1603 17.8522 13.2031 17.8944 13.2459 17.9472C13.2779 18 13.2993 18.0634 13.31 18.1374C13.3207 18.2113 13.2993 18.2853 13.2673 18.3486C13.2352 18.412 13.1817 18.4648 13.1069 18.5071C13.2138 18.5282 13.2993 18.5705 13.3528 18.6339C13.4169 18.6972 13.449 18.7712 13.4597 18.8662C13.4597 18.9402 13.449 19.0141 13.4276 19.0881C13.3955 19.162 13.3528 19.2148 13.2993 19.2677C13.2352 19.3099 13.171 19.3416 13.0855 19.3627C13.0321 19.3733 12.8931 19.3839 12.69 19.405H12.6686ZM14.6891 18.5177L15.0205 18.5599C14.9992 18.7395 14.9457 18.8874 14.8495 18.993C14.7533 19.0881 14.6143 19.162 14.4432 19.1937C14.2294 19.2254 14.037 19.1831 13.8766 19.067C13.7056 18.9402 13.6094 18.7606 13.5559 18.5071C13.5131 18.243 13.5452 18.0212 13.6628 17.8522C13.7697 17.6831 13.9408 17.5775 14.1653 17.5353C14.3684 17.5036 14.5288 17.5353 14.6784 17.6303C14.764 17.6831 14.8388 17.7677 14.8923 17.8944L14.5822 18.0212C14.5501 17.9472 14.4967 17.8838 14.4325 17.8522C14.3577 17.8099 14.2829 17.7993 14.1974 17.8099C14.0798 17.831 13.9942 17.8944 13.9301 17.9895C13.8659 18.0951 13.8552 18.2324 13.8873 18.4226C13.9301 18.6233 13.9942 18.7606 14.0798 18.8346C14.1653 18.9085 14.2722 18.9402 14.3898 18.9191C14.4753 18.8979 14.5395 18.8557 14.5929 18.7923C14.6464 18.7289 14.6784 18.6339 14.6891 18.5177ZM12.6686 17.7782V18.0529C12.6258 18.0529 12.583 18.0634 12.5296 18.0634L12.3372 18.0846L12.3692 18.4543L12.5937 18.4331C12.6151 18.4331 12.6472 18.4331 12.6686 18.4226V18.6972C12.6686 18.6972 12.6686 18.6972 12.6579 18.6972L12.4013 18.7184L12.4334 19.1515L12.6686 19.1303V19.405L12.134 19.4578L11.9844 17.8416L12.6365 17.7888C12.6472 17.7782 12.6579 17.7782 12.6686 17.7782ZM10.6052 18.8451V18.5705C10.6801 18.5705 10.7228 18.5599 10.7549 18.5493C10.7977 18.5388 10.8298 18.5071 10.8618 18.4754C10.8832 18.4331 10.8939 18.3909 10.8939 18.3486C10.9046 18.2853 10.8832 18.243 10.8511 18.2008C10.8191 18.1585 10.7763 18.1374 10.7228 18.1268C10.6908 18.1268 10.6587 18.1162 10.6052 18.1162V17.8416C10.7656 17.8416 10.8618 17.8522 10.9153 17.8733C11.0115 17.8944 11.0863 17.9472 11.1505 18.0317C11.2146 18.1162 11.2467 18.2219 11.236 18.3486C11.236 18.4437 11.2146 18.5282 11.1826 18.6022C11.1398 18.6655 11.097 18.7184 11.0436 18.7606C10.9794 18.7923 10.926 18.8134 10.8618 18.8346C10.7977 18.8451 10.7122 18.8451 10.6052 18.8451ZM10.6052 17.8416V18.1162C10.5732 18.1162 10.5304 18.1162 10.477 18.1162L10.3166 18.1057V18.5705H10.4877C10.5304 18.5705 10.5732 18.5705 10.6052 18.5705V18.8451C10.5839 18.8451 10.5518 18.8451 10.5197 18.8451H10.3059L10.2952 19.4578L9.9638 19.4472L9.99587 17.831L10.5197 17.8416C10.5518 17.8416 10.5839 17.8416 10.6052 17.8416ZM7.51561 18.6867V18.1902C7.61183 18.2113 7.67597 18.2113 7.70805 18.2113C7.75081 18.2008 7.78288 18.1902 7.81495 18.1585C7.83633 18.1268 7.85772 18.0951 7.86841 18.0423C7.8791 17.9895 7.86841 17.9472 7.84703 17.905C7.82564 17.8627 7.78288 17.8416 7.72943 17.8205C7.70805 17.8099 7.63321 17.7993 7.51561 17.7782V17.5036L7.65459 17.5247C7.82564 17.5564 7.94324 17.5881 8.01808 17.6303C8.09291 17.6726 8.14637 17.736 8.17844 17.8205C8.21051 17.8944 8.2212 17.9895 8.19982 18.0846C8.17844 18.2008 8.12499 18.2958 8.03946 18.3592C7.96462 18.4226 7.84703 18.4543 7.69735 18.4543C7.7615 18.5071 7.81495 18.5599 7.84703 18.6127C7.88979 18.6761 7.93255 18.7712 7.98601 18.9085L8.12499 19.2571L7.74012 19.1831L7.56907 18.7923C7.54768 18.7606 7.53699 18.7184 7.51561 18.6867ZM8.4564 17.6831L8.77712 17.7148L8.70229 18.5916C8.6916 18.7289 8.6916 18.824 8.6916 18.8557C8.70229 18.9296 8.73436 18.9824 8.77712 19.0247C8.83058 19.0775 8.89472 19.0986 8.99094 19.1092C9.08716 19.1198 9.16199 19.0986 9.20476 19.067C9.25821 19.0353 9.29028 18.993 9.31166 18.9402C9.32235 18.8874 9.33305 18.7923 9.34374 18.6655L9.41857 17.7677L9.74999 17.7993L9.67515 18.6444C9.66446 18.8451 9.64308 18.9824 9.611 19.0564C9.58962 19.1303 9.54686 19.2043 9.5041 19.2465C9.45064 19.2993 9.37581 19.3416 9.29028 19.3627C9.21545 19.3944 9.10854 19.3944 8.98025 19.3839C8.81989 19.3733 8.70229 19.3416 8.62745 19.2993C8.55262 19.2571 8.48847 19.2043 8.44571 19.1515C8.40295 19.0881 8.38156 19.0247 8.37087 18.9613C8.36018 18.8662 8.36018 18.7289 8.37087 18.5493L8.4564 17.6831ZM5.85854 18.1585L5.92268 17.8944L6.61759 18.074L6.44653 18.6972C6.36101 18.75 6.2541 18.7817 6.10443 18.7923C5.96545 18.8029 5.83716 18.7923 5.70887 18.7606C5.53782 18.7184 5.39884 18.6444 5.30262 18.5493C5.19571 18.4437 5.13157 18.3169 5.09949 18.1796C5.07811 18.0317 5.07811 17.8838 5.12088 17.736C5.16364 17.5775 5.23847 17.4402 5.34538 17.324C5.4416 17.2184 5.56989 17.155 5.71956 17.1233C5.83716 17.0916 5.97614 17.1022 6.12581 17.1444C6.31824 17.1972 6.46791 17.2712 6.55344 17.3874C6.63897 17.493 6.68173 17.6303 6.67104 17.7782L6.33962 17.7571C6.33962 17.6726 6.31824 17.5986 6.26479 17.5353C6.21134 17.4824 6.14719 17.4296 6.05097 17.4085C5.91199 17.3768 5.79439 17.3874 5.68749 17.4507C5.58058 17.5141 5.50574 17.6409 5.45229 17.8099C5.39884 18 5.40953 18.1479 5.46298 18.2641C5.52713 18.3803 5.62334 18.4543 5.75163 18.486C5.82647 18.5071 5.89061 18.5071 5.96545 18.5071C6.04028 18.4965 6.10443 18.4754 6.16857 18.4543L6.22203 18.2536L5.85854 18.1585ZM7.51561 17.5036L6.95969 17.4085L6.68173 19.0036L7.00245 19.0564L7.12005 18.3909L7.19489 18.4015C7.26972 18.412 7.32318 18.4331 7.35525 18.4437C7.38732 18.4648 7.4087 18.4965 7.44078 18.5282C7.45147 18.5599 7.48354 18.6127 7.51561 18.6867V18.1902C7.48354 18.1902 7.45147 18.1796 7.4087 18.1796L7.17351 18.1374L7.23765 17.736L7.49423 17.7782C7.50492 17.7782 7.51561 17.7782 7.51561 17.7782V17.5036Z" fill="#003399"/>
<path fill-rule="evenodd" clip-rule="evenodd" d="M58.4679 15.5281V12.5493H59.7936V7.30981L58.4679 9.92953V3.3908H63.6743L65 18.4542H59.7936V15.5281H58.4679ZM58.4679 3.3908V9.92953L57.1423 12.5493H58.4679V15.5281H55.9663L54.94 18.2957H51.7113V14.8521L55.3141 7.17249H54.5765L56.6291 3.3908H58.4679ZM51.7113 8.40841L53.3257 4.62672L51.7113 3.73939V8.40841ZM38.8717 6.96122C38.9465 6.52812 38.9465 6.10559 38.8717 5.70418V6.96122ZM51.7113 3.73939V8.40841L51.4975 8.91545C48.3117 6.66545 43.6077 8.71474 43.3405 11.0915C43.0732 13.5739 44.9868 15.5809 49.8725 14.0809L48.1941 18.5176C41.7475 19.2253 39.2459 16.7007 38.8717 13.7535V12.0845C38.9679 11.3133 39.171 10.5633 39.449 9.86615C42.6242 2.07038 47.7771 3.8239 49.7335 3.67601L50.0222 2.80981L51.7113 3.73939ZM51.7113 14.8521L50.097 18.2957H51.7113V14.8521ZM33.0773 18.2007C36.5304 17.5246 39.9194 13.426 36.5197 10.1619C37.8454 9.46474 38.6686 8.2077 38.8717 6.96122V5.70418C38.6365 4.40488 37.6209 3.34855 35.7072 3.31686L33.0773 3.26404V6.15841H34.1678C35.3331 6.15841 35.1834 9.13728 33.7294 9.13728H33.0773V11.419C34.6488 11.7147 34.0929 13.8697 33.0773 14.5352V18.2007ZM38.8717 12.0845V13.7535C38.8076 13.2042 38.8076 12.6443 38.8717 12.0845ZM28.523 3.16897L26.3956 7.24643L27.347 7.17249L24.7812 18.2957H32.1258C32.4465 18.2957 32.7566 18.264 33.0773 18.2007V14.5352C32.8956 14.6619 32.6924 14.7359 32.4893 14.7359H29.8487L30.7253 11.3873H32.7031C32.8421 11.3873 32.9704 11.3978 33.0773 11.419V9.13728H31.2385L31.9762 6.15841H33.0773V3.26404L28.523 3.16897Z" fill="#003399"/>
</svg>
