<svg width="67" height="16" viewBox="0 0 67 16" fill="none" xmlns="http://www.w3.org/2000/svg">
<path fill-rule="evenodd" clip-rule="evenodd" d="M7.723 16C11.9773 16 15.446 12.4058 15.446 8C15.446 3.5942 11.9773 0 7.723 0C3.46872 0 0 3.5942 0 8C0 12.4069 3.46975 16 7.723 16Z" fill="#00ADD9"/>
<path fill-rule="evenodd" clip-rule="evenodd" d="M3.2718 9.79599C3.36922 11.1068 4.15997 12.1148 5.61917 12.1857C7.02241 12.2544 8.42461 12.2769 9.82681 12.1857C11.115 12.103 12.0768 11.1068 12.1742 9.79599C12.225 9.12395 12.2457 8.45192 12.2395 7.78096C11.9151 5.96776 10.4466 5.90334 10.3087 5.9012H10.3046H10.3004H10.2994H5.36319C5.19011 5.9012 5.04813 5.75412 5.04813 5.57484C5.04813 5.39449 5.18908 5.24849 5.36319 5.24849H10.3149C10.2693 4.03324 8.97285 3.80565 8.35518 3.767L8.03494 3.75949H8.0339C7.22761 3.74768 6.42339 3.767 5.61917 3.83249C4.13095 3.95273 3.36922 4.91139 3.2718 6.22218C3.18267 7.41381 3.18267 8.60436 3.2718 9.79599ZM10.7015 9.10678V9.54156C10.7015 9.70366 10.573 9.83678 10.4165 9.83678C10.26 9.83678 10.1315 9.70366 10.1315 9.54156V9.1057C10.0061 9.01875 9.92423 8.87489 9.92423 8.71386C9.92423 8.44763 10.145 8.23292 10.4165 8.23292C10.688 8.23292 10.9088 8.4487 10.9088 8.71386C10.9088 8.87597 10.8269 9.01875 10.7015 9.10678Z" fill="white"/>
<path fill-rule="evenodd" clip-rule="evenodd" d="M54.407 7.27533L54.4029 8.72031C54.4029 8.72031 53.9262 9.69078 52.2794 9.92911C50.6326 10.1664 50.6316 9.10463 50.7507 8.83088C50.8699 8.55606 51.2575 8.17817 52.6203 7.94736C54.0744 7.70045 54.407 7.27533 54.407 7.27533ZM56.3471 5.88402C56.3471 3.64892 54.2723 2.60759 52.4151 2.79223C50.6865 2.96507 49.2345 3.80029 48.7879 5.66931L50.5777 6.12557C51.1435 4.45085 53.2629 3.96024 54.1604 5.15724C54.4008 5.48252 54.3003 5.82176 53.9469 6.0107C53.4204 6.29197 52.4151 6.21038 51.3902 6.50131C47.0561 7.73265 48.42 11.8379 52.011 11.7327C53.1603 11.6994 53.9884 11.1551 54.5501 10.6108L54.5687 11.5255H56.3461V5.88402H56.3471ZM22.4269 4.86523C21.1242 4.86523 20.066 5.96454 20.066 7.32256C20.066 8.67951 21.1231 9.77989 22.4269 9.77989C23.7317 9.77989 24.7888 8.68059 24.7888 7.32256C24.7888 5.96454 23.7317 4.86523 22.4269 4.86523ZM27.0532 3.05632V10.0751V11.3548C27.0532 14.2576 25.1028 16 22.6238 16C20.9397 16 19.7075 15.5899 18.5115 14.2351L19.9811 12.8663C20.691 13.7327 21.5449 13.942 22.5927 13.942C23.8519 13.942 24.7877 12.8921 24.7877 11.6049V10.7536C24.0592 11.4117 23.115 11.8089 22.0838 11.8089C19.7779 11.8089 17.9083 9.82283 17.9083 7.37302C17.9083 4.92321 19.7779 2.93716 22.0838 2.93716C23.115 2.93716 24.0592 3.33437 24.7877 3.99245V3.05632H27.0532ZM66.9999 2.91784L64.5728 2.91354L62.1736 8.36282L59.4065 2.91247H56.972L60.9693 10.6774L58.8572 15.1841H61.2916L66.9999 2.91784ZM43.291 4.86523C44.5937 4.86523 45.6508 5.96454 45.6508 7.32256C45.6508 8.67951 44.5937 9.77989 43.291 9.77989C41.9862 9.77989 40.9291 8.68059 40.9291 7.32256C40.9291 5.96454 41.9862 4.86523 43.291 4.86523ZM38.6647 3.05632H40.9301V3.9946C41.6587 3.33652 42.6028 2.93931 43.634 2.93931C45.9399 2.93931 47.8095 4.92535 47.8095 7.37516C47.8095 9.82498 45.9389 11.811 43.634 11.811C42.6028 11.811 41.6587 11.4138 40.9301 10.7557V15.1851H38.6647V3.05632ZM32.6247 4.7976C34.0445 4.7976 35.1959 5.95165 35.1959 7.37516C35.1959 8.79975 34.0456 9.9538 32.6247 9.9538C31.2049 9.9538 30.0545 8.79975 30.0545 7.37516C30.0535 5.95165 31.2039 4.7976 32.6247 4.7976ZM32.6247 2.77613C30.0918 2.77613 28.0378 4.83625 28.0378 7.37624C28.0378 9.9173 30.0908 11.9763 32.6247 11.9763C35.1586 11.9763 37.2117 9.9173 37.2117 7.37624C37.2106 4.83518 35.1576 2.77613 32.6247 2.77613Z" fill="black"/>
</svg>
