<svg width="31" height="24" viewBox="0 0 31 24" fill="none" xmlns="http://www.w3.org/2000/svg">
<path fill-rule="evenodd" clip-rule="evenodd" d="M8.75704 21.397V22.6666V23.9362H8.20398V23.6279C8.02856 23.8565 7.76238 24 7.40058 24C6.68732 24 6.12817 23.4424 6.12817 22.6666C6.12817 21.8913 6.68732 21.3332 7.40058 21.3332C7.76238 21.3332 8.02856 21.4767 8.20398 21.7053V21.397H8.75704ZM7.46939 21.8536C6.99064 21.8536 6.69766 22.2203 6.69766 22.6666C6.69766 23.1129 6.99064 23.4795 7.46939 23.4795C7.92682 23.4795 8.23563 23.1287 8.23563 22.6666C8.23563 22.2045 7.92682 21.8536 7.46939 21.8536ZM27.4466 22.6666C27.4466 22.2203 27.7396 21.8536 28.2183 21.8536C28.6764 21.8536 28.9846 22.2045 28.9846 22.6666C28.9846 23.1287 28.6764 23.4795 28.2183 23.4795C27.7396 23.4795 27.4466 23.1129 27.4466 22.6666ZM29.5065 20.3773V22.6666V23.9362H28.9529V23.6279C28.7775 23.8565 28.5113 24 28.1495 24C27.4362 24 26.8771 23.4424 26.8771 22.6666C26.8771 21.8913 27.4362 21.3332 28.1495 21.3332C28.5113 21.3332 28.7775 21.4767 28.9529 21.7053V20.3773H29.5065ZM15.6222 21.8275C15.9785 21.8275 16.2075 22.0506 16.266 22.4434H14.9461C15.0052 22.0768 15.2281 21.8275 15.6222 21.8275ZM14.3662 22.6666C14.3662 21.8749 14.8876 21.3332 15.6331 21.3332C16.3458 21.3332 16.8355 21.8749 16.841 22.6666C16.841 22.7408 16.8355 22.8101 16.83 22.8788H14.9412C15.021 23.336 15.3456 23.5008 15.702 23.5008C15.9572 23.5008 16.2288 23.4047 16.442 23.2351L16.7131 23.6443C16.4042 23.9045 16.0534 24 15.6703 24C14.9089 24 14.3662 23.474 14.3662 22.6666ZM22.3113 22.6666C22.3113 22.2203 22.6043 21.8536 23.083 21.8536C23.5404 21.8536 23.8493 22.2045 23.8493 22.6666C23.8493 23.1287 23.5404 23.4795 23.083 23.4795C22.6043 23.4795 22.3113 23.1129 22.3113 22.6666ZM24.3707 21.397V22.6666V23.9362H23.8176V23.6279C23.6416 23.8565 23.376 24 23.0142 24C22.3009 24 21.7418 23.4424 21.7418 22.6666C21.7418 21.8913 22.3009 21.3332 23.0142 21.3332C23.376 21.3332 23.6416 21.4767 23.8176 21.7053V21.397H24.3707ZM19.1878 22.6666C19.1878 23.437 19.725 24 20.5449 24C20.928 24 21.1832 23.9149 21.4597 23.6972L21.1942 23.2509C20.9865 23.3999 20.7684 23.4795 20.5284 23.4795C20.0868 23.474 19.7622 23.1554 19.7622 22.6666C19.7622 22.1777 20.0868 21.8591 20.5284 21.8536C20.7684 21.8536 20.9865 21.9333 21.1942 22.0823L21.4597 21.636C21.1832 21.4183 20.928 21.3332 20.5449 21.3332C19.725 21.3332 19.1878 21.8962 19.1878 22.6666ZM25.6478 21.7053C25.7916 21.4821 25.9993 21.3332 26.3184 21.3332C26.4305 21.3332 26.5901 21.3544 26.7125 21.4025L26.542 21.923C26.425 21.8749 26.3081 21.8591 26.196 21.8591C25.8342 21.8591 25.6533 22.0926 25.6533 22.5128V23.9362H25.0996V21.397H25.6478V21.7053ZM11.4924 21.5989C11.2263 21.4238 10.8596 21.3332 10.4552 21.3332C9.81073 21.3332 9.39594 21.6414 9.39594 22.1461C9.39594 22.5602 9.70475 22.8155 10.2736 22.8952L10.5349 22.9323C10.8383 22.9749 10.9814 23.0545 10.9814 23.198C10.9814 23.3944 10.7792 23.5063 10.4016 23.5063C10.0184 23.5063 9.7419 23.3841 9.55552 23.2406L9.29483 23.6704C9.59816 23.8936 9.98128 24 10.3961 24C11.1306 24 11.5564 23.6546 11.5564 23.1712C11.5564 22.725 11.2214 22.4915 10.6677 22.4118L10.407 22.3741C10.1677 22.3425 9.9758 22.2951 9.9758 22.1248C9.9758 21.9388 10.1567 21.8275 10.46 21.8275C10.7847 21.8275 11.099 21.9497 11.2531 22.0452L11.4924 21.5989ZM17.9587 21.7053C18.1018 21.4821 18.3095 21.3332 18.6287 21.3332C18.7407 21.3332 18.9003 21.3544 19.0228 21.4025L18.8522 21.923C18.7353 21.8749 18.6183 21.8591 18.5062 21.8591C18.1444 21.8591 17.9635 22.0926 17.9635 22.5128V23.9362H17.4105V21.397L17.9587 21.397V21.7053ZM13.9087 21.397H13.0042V20.6266H12.445V21.397H11.9291V21.9017H12.445V23.06C12.445 23.6492 12.674 24 13.3282 24C13.5682 24 13.8447 23.9258 14.0201 23.8036L13.8606 23.3306C13.6955 23.426 13.5146 23.474 13.3708 23.474C13.0943 23.474 13.0042 23.3038 13.0042 23.049V21.9017H13.9087V21.397ZM5.63903 22.3425V23.9362H5.07988V22.5231C5.07988 22.0926 4.89898 21.8536 4.52134 21.8536C4.15405 21.8536 3.89884 22.0877 3.89884 22.5286V23.9362H3.33969V22.5231C3.33969 22.0926 3.15391 21.8536 2.78663 21.8536C2.40838 21.8536 2.16352 22.0877 2.16352 22.5286V23.9362H1.60498L1.60498 21.397H2.15865V21.7101C2.36635 21.4128 2.63192 21.3332 2.90358 21.3332C3.29218 21.3332 3.56871 21.5034 3.74413 21.7849C3.97863 21.4286 4.31363 21.3277 4.63828 21.3332C5.25591 21.3386 5.63903 21.7424 5.63903 22.3425Z" fill="#231F20"/>
<path d="M19.6915 17.0825H11.3091V2.04456H19.6915V17.0825Z" fill="#FF5F00"/>
<path d="M11.8408 9.56378C11.8408 6.51327 13.2716 3.79596 15.4997 2.04481C13.8704 0.764292 11.814 -7.62939e-06 9.57927 -7.62939e-06C4.28865 -7.62939e-06 0 4.28178 0 9.56378C0 14.8458 4.28865 19.1276 9.57927 19.1276C11.814 19.1276 13.8704 18.3633 15.4997 17.0827C13.2716 15.3316 11.8408 12.6143 11.8408 9.56378Z" fill="#EB001B"/>
<path d="M31.0001 9.56378C31.0001 14.8458 26.7114 19.1276 21.4208 19.1276C19.186 19.1276 17.1297 18.3633 15.4998 17.0827C17.7284 15.3316 19.1592 12.6143 19.1592 9.56378C19.1592 6.51327 17.7284 3.79596 15.4998 2.04481C17.1297 0.764292 19.186 -7.62939e-06 21.4208 -7.62939e-06C26.7114 -7.62939e-06 31.0001 4.28178 31.0001 9.56378Z" fill="#F79E1B"/>
</svg>
