<?xml version="1.0" standalone="no"?>
<!DOCTYPE svg PUBLIC "-//W3C//DTD SVG 20010904//EN"
 "http://www.w3.org/TR/2001/REC-SVG-20010904/DTD/svg10.dtd">
<svg version="1.0" xmlns="http://www.w3.org/2000/svg"
 width="2560.000000pt" height="798.000000pt" viewBox="0 0 2560.000000 798.000000"
 preserveAspectRatio="xMidYMid meet">

<g transform="translate(0.000000,798.000000) scale(0.100000,-0.100000)"
fill="#000000" stroke="none">
<path d="M3835 7974 c-413 -30 -741 -93 -1087 -207 -786 -261 -1482 -752
-1960 -1383 -420 -555 -669 -1173 -765 -1899 -25 -191 -25 -697 0 -890 77
-588 240 -1065 528 -1550 480 -806 1256 -1418 2194 -1730 669 -222 1461 -272
2195 -139 848 154 1683 610 2247 1226 401 437 676 906 852 1451 256 791 251
1630 -14 2425 -247 740 -708 1384 -1331 1853 -608 460 -1296 733 -2074 824
-127 15 -663 28 -785 19z m502 -1285 c621 -52 1173 -308 1614 -748 217 -217
353 -408 490 -686 123 -251 206 -524 244 -810 22 -159 22 -534 1 -706 -72
-581 -310 -1083 -711 -1498 -213 -220 -452 -395 -719 -526 -249 -122 -496
-199 -771 -241 -167 -26 -572 -26 -730 -1 -343 55 -640 156 -907 309 -706 404
-1169 1077 -1293 1878 -23 143 -31 560 -16 716 61 595 314 1135 731 1555 146
146 234 220 403 333 481 324 1073 475 1664 425z"/>
<path d="M21190 7964 c-25 -2 -112 -11 -195 -20 -942 -99 -1867 -535 -2515
-1183 -981 -981 -1353 -2435 -970 -3788 199 -704 624 -1379 1154 -1832 1094
-935 2584 -1263 3976 -875 737 206 1466 643 1930 1159 663 734 1012 1633 1013
2610 0 438 -62 821 -198 1230 -227 682 -665 1321 -1198 1746 -655 524 -1406
838 -2237 935 -127 15 -651 27 -760 18z m620 -1284 c461 -59 876 -227 1240
-501 477 -359 818 -882 955 -1464 53 -225 60 -300 60 -625 0 -244 -4 -328 -18
-420 -90 -575 -334 -1058 -736 -1461 -477 -476 -1072 -734 -1742 -756 -555
-18 -1058 125 -1519 432 -161 107 -286 213 -432 363 -371 385 -609 868 -693
1402 -22 141 -34 450 -24 629 36 620 300 1211 739 1652 146 147 235 220 403
333 319 215 701 359 1087 410 63 9 140 17 170 20 91 6 419 -2 510 -14z"/>
<path d="M8650 7135 l0 -625 439 0 c339 0 441 -3 448 -12 5 -7 542 -1174 1193
-2593 1233 -2690 1335 -2909 1439 -3090 233 -405 457 -582 891 -701 109 -30
531 -118 535 -111 1 1 712 1586 1581 3522 l1579 3520 0 355 0 355 -1395 0
-1395 0 -3 -622 -2 -623 501 0 c472 0 500 -1 495 -17 -10 -30 -1835 -4245
-1841 -4251 -3 -3 -6 -3 -8 -1 -8 10 -1897 4255 -1897 4262 0 4 180 7 400 7
l400 0 0 625 0 625 -1680 0 -1680 0 0 -625z"/>
</g>
</svg>
