<svg width="44" height="14" viewBox="0 0 44 14" fill="none" xmlns="http://www.w3.org/2000/svg">
<path fill-rule="evenodd" clip-rule="evenodd" d="M11.0005 13.891H7.19254L4.33706 3.03018C4.20153 2.53058 3.91375 2.08891 3.49044 1.88075C2.43403 1.35762 1.26993 0.941288 0 0.731312V0.313171H6.13426C6.98088 0.313171 7.61584 0.941288 7.72167 1.67077L9.20325 9.50503L13.0093 0.313171H16.7114L11.0005 13.891ZM18.828 13.891H15.2317L18.193 0.313171H21.7893L18.828 13.891ZM26.442 4.07461C26.5478 3.34332 27.1827 2.92518 27.9235 2.92518C29.0876 2.82019 30.3557 3.03016 31.414 3.55148L32.0489 0.628116C30.9907 0.209975 29.8266 0 28.7702 0C25.2797 0 22.7399 1.88073 22.7399 4.49094C22.7399 6.47666 24.5389 7.51929 25.8088 8.14741C27.1827 8.77372 27.7119 9.19186 27.6061 9.81816C27.6061 10.7576 26.5478 11.1758 25.4914 11.1758C24.2214 11.1758 22.9515 10.8626 21.7893 10.3395L21.1543 13.2647C22.4242 13.786 23.7981 13.996 25.0681 13.996C28.9818 14.0991 31.414 12.2202 31.414 9.40002C31.414 5.84854 26.442 5.64038 26.442 4.07461ZM44 13.891L41.1445 0.313171H38.0774C37.4424 0.313171 36.8075 0.731312 36.5958 1.35762L31.3082 13.891H35.0103L35.7492 11.9071H40.2979L40.7212 13.891H44ZM38.6065 3.96968L39.6629 9.08693H36.7016L38.6065 3.96968Z" fill="#172B85"/>
</svg>
