<svg width="30" height="27" viewBox="0 0 30 27" fill="none" xmlns="http://www.w3.org/2000/svg">
<path fill-rule="evenodd" clip-rule="evenodd" d="M2.9375 24.0637V11.3396H4.89504V24.0637C4.89504 24.3233 4.99817 24.5722 5.18172 24.7558C5.36528 24.9393 5.61423 25.0424 5.87382 25.0424H23.4917C23.7513 25.0424 24.0003 24.9393 24.1838 24.7558C24.3674 24.5722 24.4705 24.3233 24.4705 24.0637V11.3396H26.428V24.0637C26.428 24.8424 26.1187 25.5893 25.568 26.14C25.0173 26.6906 24.2705 27 23.4917 27H5.87382C5.09506 27 4.34819 26.6906 3.79753 26.14C3.24686 25.5893 2.9375 24.8424 2.9375 24.0637ZM24.4705 2.53068V9.38209L20.5554 5.467V2.53068C20.5554 2.2711 20.6585 2.02214 20.8421 1.83859C21.0256 1.65503 21.2746 1.55191 21.5342 1.55191H23.4917C23.7513 1.55191 24.0003 1.65503 24.1838 1.83859C24.3674 2.02214 24.4705 2.2711 24.4705 2.53068Z" fill="#A9A9A9"/>
<path fill-rule="evenodd" clip-rule="evenodd" d="M13.2988 0.573143C13.6659 0.20616 14.1638 0 14.6828 0C15.2019 0 15.6997 0.20616 16.0668 0.573143L29.0786 13.583C29.2624 13.7668 29.3656 14.016 29.3656 14.276C29.3656 14.5359 29.2624 14.7851 29.0786 14.9689C28.8948 15.1527 28.6456 15.256 28.3856 15.256C28.1257 15.256 27.8765 15.1527 27.6927 14.9689L14.6828 1.95713L1.67298 14.9689C1.48919 15.1527 1.23992 15.256 0.980009 15.256C0.720094 15.256 0.470825 15.1527 0.287038 14.9689C0.103251 14.7851 0 14.5359 0 14.276C0 14.016 0.103251 13.7668 0.287038 13.583L13.2988 0.573143Z" fill="#A9A9A9"/>
</svg>
