<svg width="23" height="27" viewBox="0 0 23 27" fill="none" xmlns="http://www.w3.org/2000/svg">
<path d="M16.0938 3.625H19.375C20.0712 3.625 20.7389 3.90156 21.2312 4.39384C21.7234 4.88613 22 5.55381 22 6.25V23.3125C22 24.0087 21.7234 24.6764 21.2312 25.1687C20.7389 25.6609 20.0712 25.9375 19.375 25.9375H3.625C2.92881 25.9375 2.26113 25.6609 1.76884 25.1687C1.27656 24.6764 1 24.0087 1 23.3125V6.25C1 5.55381 1.27656 4.88613 1.76884 4.39384C2.26113 3.90156 2.92881 3.625 3.625 3.625H6.90625" stroke="#A9A9A9" stroke-width="2" stroke-linecap="round" stroke-linejoin="round"/>
<path d="M7.06506 2.98844C7.20701 2.42055 7.53471 1.9164 7.99606 1.55611C8.45741 1.19583 9.02595 1.00009 9.61131 1H13.3874C13.9727 1.00009 14.5413 1.19583 15.0026 1.55611C15.464 1.9164 15.7917 2.42055 15.9336 2.98844L16.75 6.25H6.25L7.06506 2.98844Z" stroke="#A9A9A9" stroke-width="2" stroke-linecap="round" stroke-linejoin="round"/>
<path d="M7.5625 14.125H15.4375M7.5625 19.375H15.4375" stroke="#A9A9A9" stroke-width="2" stroke-linecap="round"/>
</svg>
