<svg width="25" height="27" viewBox="0 0 25 27" fill="none" xmlns="http://www.w3.org/2000/svg">
<path d="M12.4999 13.5C15.8366 13.5 18.5416 10.795 18.5416 7.45832C18.5416 4.1216 15.8366 1.41666 12.4999 1.41666C9.1632 1.41666 6.45825 4.1216 6.45825 7.45832C6.45825 10.795 9.1632 13.5 12.4999 13.5Z" stroke="#A9A9A9" stroke-width="2"/>
<path d="M18.5416 15.9167H18.9669C19.8503 15.9169 20.7032 16.2397 21.3654 16.8245C22.0275 17.4092 22.4534 18.2156 22.5629 19.0922L23.0354 22.867C23.0779 23.2071 23.0475 23.5523 22.9464 23.8797C22.8453 24.2072 22.6757 24.5094 22.4489 24.7662C22.222 25.0231 21.9432 25.2288 21.6307 25.3697C21.3183 25.5106 20.9795 25.5834 20.6368 25.5833H4.36299C4.02029 25.5834 3.68149 25.5106 3.36907 25.3697C3.05666 25.2288 2.77778 25.0231 2.55095 24.7662C2.32411 24.5094 2.15451 24.2072 2.05339 23.8797C1.95227 23.5523 1.92196 23.2071 1.96445 22.867L2.4357 19.0922C2.54529 18.2152 2.9715 17.4084 3.63417 16.8237C4.29684 16.2389 5.15032 15.9163 6.03412 15.9167H6.45824" stroke="#A9A9A9" stroke-width="2" stroke-linecap="round" stroke-linejoin="round"/>
</svg>
